<svg width="265" height="56" viewBox="0 0 265 56" fill="none" xmlns="http://www.w3.org/2000/svg">
<path d="M2.07644 12.7526L23.3632 1.07738C24.5835 0.408044 26.0641 0.421207 27.2724 1.11213L47.9856 12.9566C49.2313 13.669 50 14.994 50 16.429V39.9693C50 41.4234 49.2109 42.7629 47.939 43.4678L27.2414 54.9392C26.0489 55.6002 24.6018 55.6082 23.402 54.9604L2.09967 43.4592C0.806218 42.7609 0 41.4094 0 39.9394V16.2597C0 14.7993 0.795945 13.4549 2.07644 12.7526Z" fill="url(#paint0_linear)"/>
<g filter="url(#filter0_d)">
<ellipse rx="7.64712" ry="18.7792" transform="matrix(-0.491972 0.870611 0.867793 0.496926 25.0008 27.9088)" stroke="white" stroke-width="1.5"/>
</g>
<g filter="url(#filter1_d)">
<ellipse rx="7.64712" ry="18.7792" transform="matrix(-0.491972 -0.870611 0.867793 -0.496926 25.0008 27.7925)" stroke="white" stroke-width="1.5"/>
</g>
<g filter="url(#filter2_d)">
<ellipse cx="25.0664" cy="27.8499" rx="7.60884" ry="18.8733" transform="rotate(180 25.0664 27.8499)" stroke="white" stroke-width="1.5"/>
</g>
<ellipse cx="25.0056" cy="27.7281" rx="3.06373" ry="3.04348" transform="rotate(-90 25.0056 27.7281)" fill="white"/>
<path d="M74.0573 13.4C76.8573 13.4 78.9946 13.9133 80.4693 14.94C81.9626 15.9667 82.7093 17.5347 82.7093 19.644C82.7093 22.276 81.412 24.0587 78.8173 24.992C79.172 25.4213 79.5733 25.944 80.0213 26.56C80.4693 27.176 80.9266 27.848 81.3933 28.576C81.86 29.2853 82.308 30.0227 82.7373 30.788C83.1666 31.5347 83.5493 32.272 83.8853 33H79.9373C79.5826 32.328 79.2 31.656 78.7893 30.984C78.3786 30.2933 77.9586 29.6307 77.5293 28.996C77.1186 28.3427 76.708 27.736 76.2973 27.176C75.8866 26.5973 75.504 26.084 75.1493 25.636C74.888 25.6547 74.664 25.664 74.4773 25.664C74.2906 25.664 74.1133 25.664 73.9453 25.664H72.2373V33H68.7093V13.876C69.568 13.6893 70.4826 13.568 71.4533 13.512C72.424 13.4373 73.292 13.4 74.0573 13.4ZM74.3093 16.452C73.5626 16.452 72.872 16.48 72.2373 16.536V22.808H73.7773C74.636 22.808 75.392 22.7613 76.0453 22.668C76.6986 22.5747 77.24 22.4067 77.6693 22.164C78.1173 21.9213 78.4533 21.5947 78.6773 21.184C78.9013 20.7733 79.0133 20.2507 79.0133 19.616C79.0133 19.0187 78.9013 18.5147 78.6773 18.104C78.4533 17.6933 78.1266 17.3667 77.6973 17.124C77.2866 16.8813 76.792 16.7133 76.2133 16.62C75.6346 16.508 75 16.452 74.3093 16.452ZM84.3795 25.748C84.3795 24.46 84.5661 23.3307 84.9395 22.36C85.3315 21.3893 85.8448 20.5867 86.4795 19.952C87.1141 19.2987 87.8421 18.8133 88.6635 18.496C89.4848 18.16 90.3248 17.992 91.1835 17.992C93.1995 17.992 94.7675 18.6173 95.8875 19.868C97.0261 21.1187 97.5955 22.9853 97.5955 25.468C97.5955 25.6547 97.5861 25.8693 97.5675 26.112C97.5675 26.336 97.5581 26.5413 97.5395 26.728H87.8795C87.9728 27.904 88.3835 28.8187 89.1115 29.472C89.8581 30.1067 90.9315 30.424 92.3315 30.424C93.1528 30.424 93.8995 30.3493 94.5715 30.2C95.2621 30.0507 95.8035 29.892 96.1955 29.724L96.6435 32.496C96.4568 32.5893 96.1955 32.692 95.8595 32.804C95.5421 32.8973 95.1688 32.9813 94.7395 33.056C94.3288 33.1493 93.8808 33.224 93.3955 33.28C92.9101 33.336 92.4155 33.364 91.9115 33.364C90.6235 33.364 89.5035 33.1773 88.5515 32.804C87.5995 32.412 86.8155 31.88 86.1995 31.208C85.5835 30.5173 85.1261 29.7147 84.8275 28.8C84.5288 27.8667 84.3795 26.8493 84.3795 25.748ZM94.2075 24.236C94.2075 23.7693 94.1421 23.3307 94.0115 22.92C93.8808 22.4907 93.6848 22.1267 93.4235 21.828C93.1808 21.5107 92.8728 21.268 92.4995 21.1C92.1448 20.9133 91.7155 20.82 91.2115 20.82C90.6888 20.82 90.2315 20.9227 89.8395 21.128C89.4475 21.3147 89.1115 21.5667 88.8315 21.884C88.5701 22.2013 88.3648 22.5653 88.2155 22.976C88.0661 23.3867 87.9635 23.8067 87.9075 24.236H94.2075ZM105.08 30.62C106.125 30.62 106.918 30.564 107.46 30.452V26.7C107.273 26.644 107.002 26.588 106.648 26.532C106.293 26.476 105.901 26.448 105.472 26.448C105.098 26.448 104.716 26.476 104.324 26.532C103.95 26.588 103.605 26.6907 103.288 26.84C102.989 26.9893 102.746 27.204 102.56 27.484C102.373 27.7453 102.28 28.0813 102.28 28.492C102.28 29.2947 102.532 29.8547 103.036 30.172C103.54 30.4707 104.221 30.62 105.08 30.62ZM104.8 17.992C105.92 17.992 106.862 18.132 107.628 18.412C108.393 18.692 109 19.084 109.448 19.588C109.914 20.092 110.241 20.708 110.428 21.436C110.633 22.1453 110.736 22.9293 110.736 23.788V32.664C110.213 32.776 109.42 32.9067 108.356 33.056C107.31 33.224 106.125 33.308 104.8 33.308C103.922 33.308 103.12 33.224 102.392 33.056C101.664 32.888 101.038 32.6173 100.516 32.244C100.012 31.8707 99.6102 31.3853 99.3116 30.788C99.0316 30.1907 98.8916 29.4533 98.8916 28.576C98.8916 27.736 99.0502 27.0267 99.3676 26.448C99.7036 25.8693 100.152 25.4027 100.712 25.048C101.272 24.6747 101.916 24.4133 102.644 24.264C103.39 24.096 104.165 24.012 104.968 24.012C105.341 24.012 105.733 24.04 106.144 24.096C106.554 24.1333 106.993 24.208 107.46 24.32V23.76C107.46 23.368 107.413 22.9947 107.32 22.64C107.226 22.2853 107.058 21.9773 106.816 21.716C106.592 21.436 106.284 21.2213 105.892 21.072C105.518 20.9227 105.042 20.848 104.464 20.848C103.68 20.848 102.961 20.904 102.308 21.016C101.654 21.128 101.122 21.2587 100.712 21.408L100.292 18.664C100.721 18.5147 101.346 18.3653 102.168 18.216C102.989 18.0667 103.866 17.992 104.8 17.992ZM112.813 25.692C112.813 24.6093 112.981 23.6013 113.317 22.668C113.653 21.716 114.129 20.8947 114.745 20.204C115.379 19.5133 116.145 18.972 117.041 18.58C117.937 18.188 118.945 17.992 120.065 17.992C121.446 17.992 122.753 18.244 123.985 18.748L123.257 21.52C122.865 21.352 122.417 21.212 121.913 21.1C121.427 20.988 120.905 20.932 120.345 20.932C119.019 20.932 118.011 21.352 117.321 22.192C116.63 23.0133 116.285 24.18 116.285 25.692C116.285 27.148 116.611 28.3053 117.265 29.164C117.918 30.004 119.019 30.424 120.569 30.424C121.147 30.424 121.717 30.368 122.277 30.256C122.837 30.144 123.322 30.004 123.733 29.836L124.209 32.636C123.835 32.8227 123.266 32.9907 122.501 33.14C121.754 33.2893 120.979 33.364 120.177 33.364C118.926 33.364 117.834 33.1773 116.901 32.804C115.986 32.412 115.221 31.88 114.605 31.208C114.007 30.5173 113.559 29.7053 113.261 28.772C112.962 27.82 112.813 26.7933 112.813 25.692ZM125.404 14.492L128.792 13.932V18.356H134V21.184H128.792V27.148C128.792 28.324 128.978 29.164 129.352 29.668C129.725 30.172 130.36 30.424 131.256 30.424C131.872 30.424 132.413 30.3587 132.88 30.228C133.365 30.0973 133.748 29.976 134.028 29.864L134.588 32.552C134.196 32.72 133.682 32.888 133.048 33.056C132.413 33.2427 131.666 33.336 130.808 33.336C129.762 33.336 128.885 33.196 128.176 32.916C127.485 32.636 126.934 32.2347 126.524 31.712C126.113 31.1707 125.824 30.5267 125.656 29.78C125.488 29.0147 125.404 28.1467 125.404 27.176V14.492ZM154.338 33C154.077 32.2347 153.806 31.4787 153.526 30.732C153.246 29.9853 152.975 29.22 152.714 28.436H144.538C144.277 29.22 144.006 29.9947 143.726 30.76C143.465 31.5067 143.203 32.2533 142.942 33H139.274C140.002 30.928 140.693 29.0147 141.346 27.26C141.999 25.5053 142.634 23.844 143.25 22.276C143.885 20.708 144.51 19.2147 145.126 17.796C145.742 16.3773 146.377 14.9773 147.03 13.596H150.362C151.015 14.9773 151.65 16.3773 152.266 17.796C152.882 19.2147 153.498 20.708 154.114 22.276C154.749 23.844 155.393 25.5053 156.046 27.26C156.718 29.0147 157.418 30.928 158.146 33H154.338ZM148.626 17.348C148.197 18.3373 147.702 19.5413 147.142 20.96C146.601 22.3787 146.031 23.9187 145.434 25.58H151.818C151.221 23.9187 150.642 22.3693 150.082 20.932C149.522 19.4947 149.037 18.3 148.626 17.348ZM162.43 33C161.497 31.0773 160.536 28.8747 159.546 26.392C158.576 23.8907 157.689 21.212 156.886 18.356H160.498C160.704 19.1773 160.937 20.064 161.198 21.016C161.478 21.9493 161.768 22.892 162.066 23.844C162.384 24.7773 162.701 25.692 163.018 26.588C163.354 27.4653 163.662 28.2587 163.942 28.968C164.222 28.2587 164.521 27.4653 164.838 26.588C165.156 25.692 165.464 24.7773 165.762 23.844C166.08 22.892 166.378 21.9493 166.658 21.016C166.938 20.064 167.181 19.1773 167.386 18.356H170.886C170.084 21.212 169.188 23.8907 168.198 26.392C167.228 28.8747 166.276 31.0773 165.342 33H162.43ZM177.309 30.62C178.354 30.62 179.147 30.564 179.689 30.452V26.7C179.502 26.644 179.231 26.588 178.877 26.532C178.522 26.476 178.13 26.448 177.701 26.448C177.327 26.448 176.945 26.476 176.553 26.532C176.179 26.588 175.834 26.6907 175.517 26.84C175.218 26.9893 174.975 27.204 174.789 27.484C174.602 27.7453 174.509 28.0813 174.509 28.492C174.509 29.2947 174.761 29.8547 175.265 30.172C175.769 30.4707 176.45 30.62 177.309 30.62ZM177.029 17.992C178.149 17.992 179.091 18.132 179.857 18.412C180.622 18.692 181.229 19.084 181.677 19.588C182.143 20.092 182.47 20.708 182.657 21.436C182.862 22.1453 182.965 22.9293 182.965 23.788V32.664C182.442 32.776 181.649 32.9067 180.585 33.056C179.539 33.224 178.354 33.308 177.029 33.308C176.151 33.308 175.349 33.224 174.621 33.056C173.893 32.888 173.267 32.6173 172.745 32.244C172.241 31.8707 171.839 31.3853 171.541 30.788C171.261 30.1907 171.121 29.4533 171.121 28.576C171.121 27.736 171.279 27.0267 171.597 26.448C171.933 25.8693 172.381 25.4027 172.941 25.048C173.501 24.6747 174.145 24.4133 174.873 24.264C175.619 24.096 176.394 24.012 177.197 24.012C177.57 24.012 177.962 24.04 178.373 24.096C178.783 24.1333 179.222 24.208 179.689 24.32V23.76C179.689 23.368 179.642 22.9947 179.549 22.64C179.455 22.2853 179.287 21.9773 179.045 21.716C178.821 21.436 178.513 21.2213 178.121 21.072C177.747 20.9227 177.271 20.848 176.693 20.848C175.909 20.848 175.19 20.904 174.537 21.016C173.883 21.128 173.351 21.2587 172.941 21.408L172.521 18.664C172.95 18.5147 173.575 18.3653 174.397 18.216C175.218 18.0667 176.095 17.992 177.029 17.992ZM185.854 18.832C186.507 18.6453 187.356 18.468 188.402 18.3C189.447 18.132 190.604 18.048 191.874 18.048C193.068 18.048 194.067 18.216 194.87 18.552C195.672 18.8693 196.307 19.3267 196.774 19.924C197.259 20.5027 197.595 21.212 197.782 22.052C197.987 22.8733 198.09 23.7787 198.09 24.768V33H194.702V25.3C194.702 24.516 194.646 23.8533 194.534 23.312C194.44 22.752 194.272 22.304 194.03 21.968C193.806 21.6133 193.488 21.3613 193.078 21.212C192.686 21.044 192.2 20.96 191.622 20.96C191.192 20.96 190.744 20.988 190.278 21.044C189.811 21.1 189.466 21.1467 189.242 21.184V33H185.854V18.832ZM207.693 34.092C208.29 34.372 208.701 34.6893 208.925 35.044C209.167 35.3987 209.289 35.8373 209.289 36.36C209.289 37.0133 209.009 37.5733 208.449 38.04C207.889 38.5067 207.049 38.74 205.929 38.74C205.033 38.74 204.239 38.6187 203.549 38.376L203.941 36.36C204.127 36.416 204.37 36.4813 204.669 36.556C204.967 36.6307 205.275 36.668 205.593 36.668C205.91 36.668 206.153 36.612 206.321 36.5C206.507 36.388 206.601 36.22 206.601 35.996C206.601 35.6973 206.47 35.4733 206.209 35.324C205.947 35.1933 205.686 35.0813 205.425 34.988L205.145 34.904C205.219 34.6613 205.322 34.3813 205.453 34.064C205.583 33.7653 205.714 33.4853 205.845 33.224C204.874 33.056 204.034 32.7573 203.325 32.328C202.615 31.8987 202.027 31.3573 201.561 30.704C201.094 30.032 200.739 29.276 200.497 28.436C200.273 27.596 200.161 26.6813 200.161 25.692C200.161 24.6093 200.329 23.6013 200.665 22.668C201.001 21.716 201.477 20.8947 202.093 20.204C202.727 19.5133 203.493 18.972 204.389 18.58C205.285 18.188 206.293 17.992 207.413 17.992C208.794 17.992 210.101 18.244 211.333 18.748L210.605 21.52C210.213 21.352 209.765 21.212 209.261 21.1C208.775 20.988 208.253 20.932 207.693 20.932C206.367 20.932 205.359 21.352 204.669 22.192C203.978 23.0133 203.633 24.18 203.633 25.692C203.633 27.148 203.959 28.3053 204.613 29.164C205.266 30.004 206.367 30.424 207.917 30.424C208.495 30.424 209.065 30.368 209.625 30.256C210.185 30.144 210.67 30.004 211.081 29.836L211.557 32.636C211.221 32.804 210.726 32.9533 210.073 33.084C209.419 33.2147 208.738 33.2987 208.029 33.336C207.954 33.4853 207.889 33.6253 207.833 33.756C207.777 33.8867 207.73 33.9987 207.693 34.092ZM218.072 30.62C219.117 30.62 219.91 30.564 220.452 30.452V26.7C220.265 26.644 219.994 26.588 219.64 26.532C219.285 26.476 218.893 26.448 218.464 26.448C218.09 26.448 217.708 26.476 217.316 26.532C216.942 26.588 216.597 26.6907 216.28 26.84C215.981 26.9893 215.738 27.204 215.552 27.484C215.365 27.7453 215.272 28.0813 215.272 28.492C215.272 29.2947 215.524 29.8547 216.028 30.172C216.532 30.4707 217.213 30.62 218.072 30.62ZM217.792 17.992C218.912 17.992 219.854 18.132 220.62 18.412C221.385 18.692 221.992 19.084 222.44 19.588C222.906 20.092 223.233 20.708 223.42 21.436C223.625 22.1453 223.728 22.9293 223.728 23.788V32.664C223.205 32.776 222.412 32.9067 221.348 33.056C220.302 33.224 219.117 33.308 217.792 33.308C216.914 33.308 216.112 33.224 215.384 33.056C214.656 32.888 214.03 32.6173 213.508 32.244C213.004 31.8707 212.602 31.3853 212.304 30.788C212.024 30.1907 211.884 29.4533 211.884 28.576C211.884 27.736 212.042 27.0267 212.36 26.448C212.696 25.8693 213.144 25.4027 213.704 25.048C214.264 24.6747 214.908 24.4133 215.636 24.264C216.382 24.096 217.157 24.012 217.96 24.012C218.333 24.012 218.725 24.04 219.136 24.096C219.546 24.1333 219.985 24.208 220.452 24.32V23.76C220.452 23.368 220.405 22.9947 220.312 22.64C220.218 22.2853 220.05 21.9773 219.808 21.716C219.584 21.436 219.276 21.2213 218.884 21.072C218.51 20.9227 218.034 20.848 217.456 20.848C216.672 20.848 215.953 20.904 215.3 21.016C214.646 21.128 214.114 21.2587 213.704 21.408L213.284 18.664C213.713 18.5147 214.338 18.3653 215.16 18.216C215.981 18.0667 216.858 17.992 217.792 17.992ZM229.277 25.636C229.277 27.1293 229.631 28.3053 230.341 29.164C231.05 30.004 232.03 30.424 233.281 30.424C233.822 30.424 234.279 30.4053 234.653 30.368C235.045 30.312 235.362 30.256 235.605 30.2V21.8C235.306 21.5947 234.905 21.408 234.401 21.24C233.915 21.0533 233.393 20.96 232.833 20.96C231.601 20.96 230.695 21.38 230.117 22.22C229.557 23.06 229.277 24.1987 229.277 25.636ZM238.993 32.552C238.321 32.7573 237.471 32.944 236.445 33.112C235.437 33.28 234.373 33.364 233.253 33.364C232.095 33.364 231.059 33.1867 230.145 32.832C229.23 32.4773 228.446 31.9733 227.793 31.32C227.158 30.648 226.663 29.8453 226.309 28.912C225.973 27.96 225.805 26.896 225.805 25.72C225.805 24.5627 225.945 23.5173 226.225 22.584C226.523 21.632 226.953 20.82 227.513 20.148C228.073 19.476 228.754 18.9627 229.557 18.608C230.359 18.2347 231.283 18.048 232.329 18.048C233.038 18.048 233.663 18.132 234.205 18.3C234.746 18.468 235.213 18.6547 235.605 18.86V11.832L238.993 11.272V32.552ZM255.28 25.664C255.28 26.8213 255.112 27.876 254.776 28.828C254.44 29.78 253.964 30.592 253.348 31.264C252.732 31.936 251.986 32.4587 251.108 32.832C250.25 33.2053 249.298 33.392 248.252 33.392C247.207 33.392 246.255 33.2053 245.396 32.832C244.538 32.4587 243.8 31.936 243.184 31.264C242.568 30.592 242.083 29.78 241.728 28.828C241.392 27.876 241.224 26.8213 241.224 25.664C241.224 24.5067 241.392 23.4613 241.728 22.528C242.083 21.576 242.568 20.764 243.184 20.092C243.819 19.42 244.566 18.9067 245.424 18.552C246.283 18.1787 247.226 17.992 248.252 17.992C249.279 17.992 250.222 18.1787 251.08 18.552C251.958 18.9067 252.704 19.42 253.32 20.092C253.936 20.764 254.412 21.576 254.748 22.528C255.103 23.4613 255.28 24.5067 255.28 25.664ZM251.808 25.664C251.808 24.208 251.491 23.06 250.856 22.22C250.24 21.3613 249.372 20.932 248.252 20.932C247.132 20.932 246.255 21.3613 245.62 22.22C245.004 23.06 244.696 24.208 244.696 25.664C244.696 27.1387 245.004 28.3053 245.62 29.164C246.255 30.0227 247.132 30.452 248.252 30.452C249.372 30.452 250.24 30.0227 250.856 29.164C251.491 28.3053 251.808 27.1387 251.808 25.664Z" fill="#FAFAFA"/>
<defs>
<filter id="filter0_d" x="6.52399" y="15.6927" width="36.9536" height="27.4321" filterUnits="userSpaceOnUse" color-interpolation-filters="sRGB">
<feFlood flood-opacity="0" result="BackgroundImageFix"/>
<feColorMatrix in="SourceAlpha" type="matrix" values="0 0 0 0 0 0 0 0 0 0 0 0 0 0 0 0 0 0 127 0"/>
<feOffset dy="2"/>
<feGaussianBlur stdDeviation="0.5"/>
<feColorMatrix type="matrix" values="0 0 0 0 0.0235294 0 0 0 0 0.0352941 0 0 0 0 0.168627 0 0 0 0.15 0"/>
<feBlend mode="normal" in2="BackgroundImageFix" result="effect1_dropShadow"/>
<feBlend mode="normal" in="SourceGraphic" in2="effect1_dropShadow" result="shape"/>
</filter>
<filter id="filter1_d" x="6.52399" y="15.5765" width="36.9536" height="27.4321" filterUnits="userSpaceOnUse" color-interpolation-filters="sRGB">
<feFlood flood-opacity="0" result="BackgroundImageFix"/>
<feColorMatrix in="SourceAlpha" type="matrix" values="0 0 0 0 0 0 0 0 0 0 0 0 0 0 0 0 0 0 127 0"/>
<feOffset dy="2"/>
<feGaussianBlur stdDeviation="0.5"/>
<feColorMatrix type="matrix" values="0 0 0 0 0.0235294 0 0 0 0 0.0352941 0 0 0 0 0.168627 0 0 0 0.15 0"/>
<feBlend mode="normal" in2="BackgroundImageFix" result="effect1_dropShadow"/>
<feBlend mode="normal" in="SourceGraphic" in2="effect1_dropShadow" result="shape"/>
</filter>
<filter id="filter2_d" x="15.7075" y="8.22657" width="18.7177" height="42.2467" filterUnits="userSpaceOnUse" color-interpolation-filters="sRGB">
<feFlood flood-opacity="0" result="BackgroundImageFix"/>
<feColorMatrix in="SourceAlpha" type="matrix" values="0 0 0 0 0 0 0 0 0 0 0 0 0 0 0 0 0 0 127 0"/>
<feOffset dy="2"/>
<feGaussianBlur stdDeviation="0.5"/>
<feColorMatrix type="matrix" values="0 0 0 0 0.0235294 0 0 0 0 0.0352941 0 0 0 0 0.168627 0 0 0 0.15 0"/>
<feBlend mode="normal" in2="BackgroundImageFix" result="effect1_dropShadow"/>
<feBlend mode="normal" in="SourceGraphic" in2="effect1_dropShadow" result="shape"/>
</filter>
<linearGradient id="paint0_linear" x1="24" y1="76" x2="26" y2="19.5" gradientUnits="userSpaceOnUse">
<stop stop-color="#F231A5"/>
<stop offset="1" stop-color="#FF66C2"/>
</linearGradient>
</defs>
</svg>
